# xmcd CD database file
#
# Track frame offsets:
#	150
#	27148
#	52788
#	77295
#	100883
#	120102
#	146646
#	166895
#	192064
#
# Disc length: 2912 seconds
#
# Revision: 0
# Processed by: cddbd v1.5.1PL0 Copyright (c) Steve Scherf et al.
# Submitted via: CDex 1.60beta1
#
DISCID=5b0b5e09
DTITLE=Steve Yeager - New Groove Blues
DYEAR=2003
DGENRE=Jazz
TTITLE0=Old Devil Moon
TTITLE1=Easy Does It
TTITLE2=Godchild
TTITLE3=The Look Of Love
TTITLE4=New Groove Blues
TTITLE5=Blue Bossa
TTITLE6=Home
TTITLE7=Lisa
TTITLE8=Face To Face
EXTD=YEAR: 2003
EXTT0=
EXTT1=
EXTT2=
EXTT3=
EXTT4=
EXTT5=
EXTT6=
EXTT7=
EXTT8=
PLAYORDER=
